<?xml version="1.0" encoding="UTF-8" standalone="no"?>
<!-- Created with Inkscape (http://www.inkscape.org/) -->

<svg
   width="62.949486mm"
   height="61.924355mm"
   viewBox="0 0 62.949486 61.924355"
   version="1.1"
   id="svg1"
   xml:space="preserve"
   inkscape:version="1.3.2 (091e20e, 2023-11-25, custom)"
   sodipodi:docname="2.5d-cube-rounded-blue.svg"
   xmlns:inkscape="http://www.inkscape.org/namespaces/inkscape"
   xmlns:sodipodi="http://sodipodi.sourceforge.net/DTD/sodipodi-0.dtd"
   xmlns:xlink="http://www.w3.org/1999/xlink"
   xmlns="http://www.w3.org/2000/svg"
   xmlns:svg="http://www.w3.org/2000/svg"><sodipodi:namedview
     id="namedview1"
     pagecolor="#ffffff"
     bordercolor="#000000"
     borderopacity="0.25"
     inkscape:showpageshadow="2"
     inkscape:pageopacity="0.0"
     inkscape:pagecheckerboard="0"
     inkscape:deskcolor="#d1d1d1"
     inkscape:document-units="mm"
     showguides="true"
     inkscape:zoom="2.8284271"
     inkscape:cx="119.50105"
     inkscape:cy="111.72287"
     inkscape:window-width="1350"
     inkscape:window-height="1024"
     inkscape:window-x="4367"
     inkscape:window-y="158"
     inkscape:window-maximized="0"
     inkscape:current-layer="layer4" /><defs
     id="defs1"><linearGradient
       id="linearGradient143"
       inkscape:collect="always"><stop
         style="stop-color:#27498c;stop-opacity:0.79607844;"
         offset="0"
         id="stop143" /><stop
         style="stop-color:#325caf;stop-opacity:0.63522011;"
         offset="1"
         id="stop144" /></linearGradient><linearGradient
       id="linearGradient142"
       inkscape:collect="always"><stop
         style="stop-color:#001643;stop-opacity:0.80503142;"
         offset="0"
         id="stop141" /><stop
         style="stop-color:#2f74ff;stop-opacity:0.86163521;"
         offset="1"
         id="stop142" /></linearGradient><linearGradient
       id="linearGradient139"
       inkscape:collect="always"><stop
         style="stop-color:#6296ff;stop-opacity:0.90144902;"
         offset="0"
         id="stop139" /><stop
         style="stop-color:#002f8d;stop-opacity:0.64779872;"
         offset="1"
         id="stop140" /></linearGradient><linearGradient
       id="linearGradient137"
       inkscape:collect="always"><stop
         style="stop-color:#bacbed;stop-opacity:0.80503142;"
         offset="0"
         id="stop137" /><stop
         style="stop-color:#4c77ce;stop-opacity:0.79562044;"
         offset="1"
         id="stop138" /></linearGradient><linearGradient
       id="linearGradient133"
       inkscape:collect="always"><stop
         style="stop-color:#000d26;stop-opacity:1;"
         offset="0"
         id="stop133" /><stop
         style="stop-color:#95b8ff;stop-opacity:1;"
         offset="1"
         id="stop134" /></linearGradient><inkscape:path-effect
       effect="fill_between_many"
       method="originald"
       linkedpaths="#path25,0,1|#path17,0,1|#path18,0,1|#path16,0,1"
       id="path-effect44"
       is_visible="true"
       lpeversion="0"
       join="true"
       close="true"
       autoreverse="true" /><inkscape:path-effect
       effect="fill_between_many"
       method="originald"
       linkedpaths="#path17,0,1|#path25,0,1"
       id="path-effect45"
       is_visible="true"
       lpeversion="0"
       join="true"
       close="true"
       autoreverse="true" /><filter
       style="color-interpolation-filters:sRGB"
       inkscape:label="Blur"
       id="filter125"
       x="-0.31191739"
       y="-0.301886"
       width="1.6238311"
       height="1.6037714"><feGaussianBlur
         stdDeviation="2.3 1.2"
         result="fbSourceGraphic"
         id="feGaussianBlur125" /><feColorMatrix
         result="fbSourceGraphicAlpha"
         in="fbSourceGraphic"
         values="0 0 0 -1 0 0 0 0 -1 0 0 0 0 -1 0 0 0 0 1 0"
         id="feColorMatrix125" /><feGaussianBlur
         id="feGaussianBlur126"
         stdDeviation="2.3 1.2"
         result="blur"
         in="fbSourceGraphic" /></filter><linearGradient
       inkscape:collect="always"
       xlink:href="#linearGradient133"
       id="linearGradient134"
       x1="145.13147"
       y1="182.39143"
       x2="127.41345"
       y2="114.90662"
       gradientUnits="userSpaceOnUse"
       gradientTransform="translate(-68.787628,-22.147532)" /><linearGradient
       inkscape:collect="always"
       xlink:href="#linearGradient137"
       id="linearGradient138"
       x1="60.449734"
       y1="108.65319"
       x2="79.209999"
       y2="128.19513"
       gradientUnits="userSpaceOnUse" /><linearGradient
       inkscape:collect="always"
       xlink:href="#linearGradient139"
       id="linearGradient140"
       x1="54.71743"
       y1="120.89947"
       x2="54.196312"
       y2="143.56812"
       gradientUnits="userSpaceOnUse" /><linearGradient
       inkscape:collect="always"
       xlink:href="#linearGradient142"
       id="linearGradient141"
       x1="72.956573"
       y1="141.7442"
       x2="72.696014"
       y2="121.16002"
       gradientUnits="userSpaceOnUse" /><linearGradient
       inkscape:collect="always"
       xlink:href="#linearGradient143"
       id="linearGradient144"
       x1="144.97676"
       y1="104.146"
       x2="128.99121"
       y2="91.907074"
       gradientUnits="userSpaceOnUse" /><filter
       style="color-interpolation-filters:sRGB"
       inkscape:label="Blur"
       id="filter121"
       x="-0.42835829"
       y="-0.3605957"
       width="1.8141588"
       height="1.6564801"><feGaussianBlur
         stdDeviation="1.7 0.5"
         result="blur"
         id="feGaussianBlur121" /></filter><filter
       style="color-interpolation-filters:sRGB"
       inkscape:label="Blur"
       id="filter1"
       x="-0.42835829"
       y="-0.3605957"
       width="1.8141588"
       height="1.6564801"><feGaussianBlur
         stdDeviation="1.7 0.5"
         result="blur"
         id="feGaussianBlur1" /></filter><filter
       style="color-interpolation-filters:sRGB"
       inkscape:label="Blur"
       id="filter2"
       x="-0.42835829"
       y="-0.3605957"
       width="1.8141588"
       height="1.6564801"><feGaussianBlur
         stdDeviation="1.7 0.5"
         result="blur"
         id="feGaussianBlur2" /></filter></defs><g
     inkscape:groupmode="layer"
     id="layer5"
     inkscape:label="outerline-bg"
     style="display:inline;fill:#212121;fill-opacity:0.889855"
     transform="translate(-33.012591,-100.33996)" /><g
     inkscape:label="bg"
     inkscape:groupmode="layer"
     id="layer1"
     style="display:inline"
     transform="translate(-33.012591,-100.33996)" /><g
     inkscape:groupmode="layer"
     id="layer3"
     inkscape:label="fg"
     style="display:inline"
     transform="translate(-33.012591,-100.33996)" /><g
     inkscape:groupmode="layer"
     id="layer4"
     inkscape:label="outerline-fg"
     transform="translate(-33.012591,-100.33996)"><g
       id="g146"><path
         style="display:inline;opacity:0.653285;fill:url(#linearGradient144);fill-opacity:1;stroke:#274c95;stroke-width:1.102;stroke-dasharray:none;stroke-opacity:0.58506203;filter:url(#filter125)"
         d="m 132.64462,106.16259 c 0,0 1.10503,0.59211 2.61228,0.60273 1.50726,0.0103 2.89938,-0.5805 2.89938,-0.5805 l 15.1147,-8.805986 c 0,0 0.62727,-0.336621 0.66777,-1.133181 0.0405,-0.796515 -0.77397,-1.242245 -0.77397,-1.242245 l -14.75362,-8.538811 c 0,0 -1.96899,-0.614407 -3.20568,-0.604313 -1.23669,0.01029 -3.25665,0.761193 -3.27674,0.821468 l -14.6125,8.57427 c 0,0 -0.50013,0.317691 -0.53746,1.120996 0.0178,0.766748 0.91487,1.242439 0.91487,1.242439 z"
         id="path142"
         sodipodi:nodetypes="czccscczccccc"
         transform="matrix(1.0431791,0,0,1.0431791,-76.716793,44.305315)"
         inkscape:label="drop shadow" /><path
         id="path126"
         style="display:inline;fill:#212121;fill-opacity:0.889855;stroke:#525252;stroke-width:0.264583;stroke-opacity:1"
         d="m 64.861193,100.7555 c -1.59191,-0.0367 -2.53938,0.46096 -2.53938,0.46096 l -13.86117,7.92251 c 0,0 -2.15178,1.15584 -2.74298,2.17558 -0.59122,1.01975 -0.65112,2.92592 -0.65112,2.92592 l 0.0124,15.86622 c 0,0 0.20563,1.64838 0.85679,2.71973 0.65118,1.07136 1.89653,1.95492 1.89653,1.95492 l 14.26166,8.39742 c 0,0 1.55232,0.78136 2.5337,0.78135 0.98137,-2e-5 2.53989,-0.76533 2.53989,-0.76533 l 14.70298,-8.65787 c 0,0 1.22989,-1.04425 1.68103,-1.83296 0.45114,-0.78872 0.72192,-2.24586 0.72192,-2.24586 l 0.008,-16.48582 c 0,0 -0.0134,-1.49552 -0.53485,-2.40141 -0.52152,-0.90587 -2.49287,-2.12545 -2.49287,-2.12545 l -13.52889,-7.84655 c 0,0 -1.27138,-0.80641 -2.86339,-0.84336 z m -2.00504,1.75649 c 0.28977,-0.004 0.64404,0.0468 0.90278,0.26768 0.46863,0.57212 0.53175,1.29656 0.53175,1.29656 h 5.2e-4 l -0.0599,15.0487 c 0,0 -0.0876,1.55192 -0.82373,2.70319 -0.73605,1.15128 -1.8035,1.86655 -1.8035,1.86655 l -13.0359,7.68843 c 0,0 -0.72231,0.55915 -1.57251,-0.0429 -0.7809,-0.55292 -0.67645,-1.73219 -0.67645,-1.73219 l -0.004,-14.66889 c 0,0 0.26247,-1.67173 0.75861,-2.56986 0.49614,-0.89813 1.5751,-1.74615 1.5751,-1.74615 l 13.6927,-8.04706 c 0,0 0.22492,-0.0598 0.5147,-0.0641 z m 3.65352,0 c 0.28977,0.004 0.5147,0.0641 0.5147,0.0641 l 13.6927,8.04706 c 0,0 1.07896,0.84802 1.5751,1.74615 0.49614,0.89813 0.75861,2.56986 0.75861,2.56986 l -0.004,14.66889 c 0,0 0.10445,1.17927 -0.67645,1.73219 -0.8502,0.60204 -1.57251,0.0429 -1.57251,0.0429 l -13.03642,-7.68843 c 0,0 -1.06693,-0.71527 -1.80299,-1.86655 -0.73614,-1.15128 -0.82372,-2.70319 -0.82372,-2.70319 l -0.0599,-15.0487 h 5.1e-4 c 0,0 0.0626,-0.72444 0.53124,-1.29656 0.25874,-0.22092 0.61353,-0.27191 0.9033,-0.26768 z m -1.96525,21.47827 c 1.08187,-0.009 2.80448,0.52866 2.80448,0.52866 l 12.90619,7.46983 c 0,0 0.71287,0.38995 0.67747,1.08675 -0.0354,0.69684 -0.58446,0.99116 -0.58446,0.99116 l -13.22245,7.7034 c 0,0 -1.21771,0.51698 -2.53628,0.50798 -1.31855,-0.009 -2.28513,-0.5271 -2.28513,-0.5271 l -13.0793,-7.47396 c 0,0 -0.78487,-0.41599 -0.80047,-1.08675 0.0327,-0.70275 0.47026,-0.98082 0.47026,-0.98082 l 12.78319,-7.50084 c 0.0176,-0.0527 1.78463,-0.70931 2.8665,-0.71831 z"
         inkscape:label="back frame" /><path
         style="display:inline;fill:#3a6bce;fill-opacity:0.83188403;stroke:#525252;stroke-width:0.264583;stroke-opacity:1"
         d="m 64.383073,103.89212 -0.0599,15.04845 c 0,0 -0.0874,1.55216 -0.82353,2.70343 -0.73606,1.15128 -1.80324,1.86621 -1.80324,1.86621 l -13.03617,7.68861 c 0,0 -0.72251,0.55914 -1.57271,-0.0429 -0.7809,-0.55292 -0.6762,-1.73238 -0.6762,-1.73238 l -0.004,-14.66859 c 0,0 0.26217,-1.67163 0.75831,-2.56977 0.49614,-0.89813 1.5752,-1.74639 1.5752,-1.74639 l 13.69256,-8.04715 c 0,0 0.90036,-0.23782 1.41785,0.20402 0.46863,0.57212 0.53145,1.29641 0.53145,1.29641 z"
         id="path127"
         sodipodi:nodetypes="cczccscczccccc"
         inkscape:label="back left face" /><path
         style="display:inline;fill:#3f6bc4;fill-opacity:0.88985503;stroke:#484848;stroke-width:0.264583;stroke-opacity:1"
         d="m 62.396183,141.56649 c 0,0 0.96669,0.51798 2.28525,0.52727 1.31857,0.009 2.53641,-0.50782 2.53641,-0.50782 l 13.22251,-7.70358 c 0,0 0.54875,-0.29448 0.58418,-0.99132 0.0354,-0.69681 -0.67708,-1.08673 -0.67708,-1.08673 l -12.90664,-7.46986 c 0,0 -1.72249,-0.53748 -2.80436,-0.52865 -1.08187,0.009 -2.84896,0.6659 -2.86653,0.71862 l -12.78318,7.50088 c 0,0 -0.43752,0.27791 -0.47018,0.98066 0.0156,0.67076 0.80034,1.0869 0.80034,1.0869 z"
         id="path128"
         sodipodi:nodetypes="czccscczccccc"
         inkscape:label="back bottom face" /><path
         style="display:inline;fill:#2f4f8f;fill-opacity:0.87536198;stroke:#515151;stroke-width:0.264;stroke-dasharray:none;stroke-opacity:1"
         d="m 65.166883,103.89212 0.0599,15.04845 c 0,0 0.0874,1.55215 0.82354,2.70343 0.73606,1.15128 1.80323,1.86621 1.80323,1.86621 l 13.0362,7.68861 c 0,0 0.72251,0.55914 1.57271,-0.0429 0.7809,-0.55292 0.6762,-1.73238 0.6762,-1.73238 l 0.004,-14.66859 c 0,0 -0.26217,-1.67162 -0.75831,-2.56977 -0.49614,-0.89813 -1.57521,-1.74639 -1.57521,-1.74639 l -13.69256,-8.04715 c 0,0 -0.90035,-0.23782 -1.41784,0.20402 -0.46863,0.57212 -0.53146,1.29641 -0.53146,1.29641 z"
         id="path129"
         sodipodi:nodetypes="cczccscczccccc"
         inkscape:label="back right face" /><path
         style="display:inline;fill:url(#linearGradient140);fill-opacity:1;stroke:#000000;stroke-width:0.27439;stroke-opacity:1"
         d="m 64.276428,140.74792 -0.0621,-15.60622 c 0,0 -0.0906,-1.60969 -0.85405,-2.80364 -0.76335,-1.19394 -1.87008,-1.93537 -1.87008,-1.93537 l -13.51936,-7.9736 c 0,0 -0.74929,-0.57986 -1.63101,0.0444 -0.80984,0.57342 -0.70126,1.79659 -0.70126,1.79659 l -0.004,15.21229 c 0,0 -0.004,1.27298 0.78641,2.66502 0.79089,1.39204 1.6336,1.81112 1.6336,1.81112 l 14.20006,8.34542 c 0,0 0.93374,0.24663 1.47041,-0.21159 0.59447,-0.53758 0.51265,-0.64836 0.55115,-1.34446 z"
         id="path130"
         sodipodi:nodetypes="cczccscczccccc"
         inkscape:label="front left face" /><path
         style="display:inline;fill:url(#linearGradient138);fill-opacity:1;stroke:#000000;stroke-width:0.27439;stroke-opacity:1"
         d="m 62.215898,101.67715 c 0,0 0.74918,-0.58328 2.36995,-0.54682 1.62077,0.0365 2.63041,0.52664 2.63041,0.52664 l 13.71261,7.98912 c 0,0 0.56913,0.3054 0.60583,1.02807 0.0367,0.72263 -0.70217,1.127 -0.70217,1.127 l -13.38503,7.74673 c 0,0 -1.48695,0.58038 -2.90831,0.54825 -1.42136,-0.0321 -2.95458,-0.69058 -2.97278,-0.74526 l -13.25699,-7.77889 c 0,0 -0.4537,-0.28822 -0.4876,-1.01702 0.0162,-0.69562 0.83,-1.12718 0.83,-1.12718 z"
         id="path131"
         sodipodi:nodetypes="czccscczccccc"
         inkscape:label="front top face" /><path
         style="display:inline;fill:url(#linearGradient141);fill-opacity:1;stroke:#000000;stroke-width:0.274;stroke-dasharray:none;stroke-opacity:1"
         d="m 65.089288,140.74792 0.0621,-15.60622 c 0,0 0.0906,-1.60968 0.85406,-2.80364 0.76335,-1.19394 1.87007,-1.93537 1.87007,-1.93537 l 13.51939,-7.9736 c 0,0 0.74929,-0.57986 1.63101,0.0444 0.80984,0.57342 0.70126,1.79659 0.70126,1.79659 l 0.004,15.21229 c 0,0 0.004,1.41116 -0.78641,2.66502 -0.79089,1.25386 -1.6336,1.81112 -1.6336,1.81112 l -14.20008,8.34542 c 0,0 -0.74948,0.2236 -1.47039,-0.21159 -0.46298,-0.25562 -0.55116,-1.29551 -0.55116,-1.34446 z"
         id="path132"
         sodipodi:nodetypes="cczccscczccccc"
         inkscape:label="front right face" /><path
         id="path133"
         style="display:inline;fill:url(#linearGradient134);fill-opacity:1;stroke:#000000;stroke-width:0.27439;stroke-opacity:1"
         d="m 64.600875,100.47907 c -1.59224,-0.0368 -2.53938,0.46095 -2.53938,0.46095 l -13.86117,7.92251 c 0,0 -2.15179,1.15584 -2.74298,2.17558 -0.59123,1.01974 -0.65113,2.92592 -0.65113,2.92592 l 0.0119,15.86622 c 0,0 0.20563,1.64836 0.85679,2.71973 0.65118,1.07136 1.89704,1.95492 1.89704,1.95492 l 14.26115,8.39742 c 0,0 1.55231,0.78136 2.5337,0.78135 0.98137,-3e-5 2.54041,-0.76533 2.54041,-0.76533 l 14.70246,-8.65787 c 0,0 1.23041,-1.04425 1.68155,-1.83297 0.45114,-0.78871 0.72192,-2.24534 0.72192,-2.24534 l 0.008,-16.48581 c 0,0 -0.0134,-1.49604 -0.53485,-2.40192 -0.52152,-0.90589 -2.49287,-2.12494 -2.49287,-2.12494 l -13.52889,-7.84655 c 0,0 -1.27166,-0.80709 -2.86391,-0.84387 z m -0.27544,0.65112 c 1.62077,0.0365 2.63033,0.52658 2.63033,0.52658 l 13.71235,7.98918 c 0,0 0.56946,0.30569 0.60616,1.02836 0.0367,0.72263 -0.70228,1.12706 -0.70228,1.12706 l -13.38523,7.7463 c 0,0 -1.48699,0.58042 -2.90835,0.54829 -1.42136,-0.0321 -2.95423,-0.6905 -2.97243,-0.74518 l -13.25707,-7.77885 c 0,0 -0.45393,-0.2882 -0.48783,-1.01699 0.0162,-0.69562 0.82993,-1.12707 0.82993,-1.12707 l 13.56454,-7.75094 c 0,0 0.74912,-0.5832 2.36988,-0.54674 z m -17.34261,11.05514 c 0.43479,0.0175 0.72761,0.24391 0.72761,0.24391 l 13.51907,7.97368 c 0,0 1.10682,0.74133 1.87017,1.93528 0.76345,1.19395 0.85421,2.80344 0.85421,2.80344 l 0.062,15.60629 c -0.0385,0.6961 0.0431,0.80704 -0.55139,1.34462 -0.53666,0.45822 -1.47019,0.21135 -1.47019,0.21135 l -14.20017,-8.34522 c 0,0 -0.8426,-0.41923 -1.63349,-1.81126 -0.79041,-1.39204 -0.78651,-2.66496 -0.78651,-2.66496 l 0.004,-15.2125 c 0,0 -0.10807,-1.22286 0.70177,-1.79628 0.33064,-0.23411 0.64243,-0.29883 0.9033,-0.28835 z m 34.87901,0 c 0.26087,-0.0105 0.57266,0.0542 0.90331,0.28835 0.80983,0.57342 0.70124,1.79628 0.70124,1.79628 l 0.004,15.2125 c 0,0 0.004,1.4111 -0.78652,2.66496 -0.79089,1.25385 -1.63349,1.81126 -1.63349,1.81126 l -14.20017,8.34522 c 0,0 -0.74928,0.22384 -1.47019,-0.21135 -0.46298,-0.25562 -0.55139,-1.29567 -0.55139,-1.34462 l 0.062,-15.60629 c 0,0 0.0908,-1.60949 0.85422,-2.80344 0.76335,-1.19395 1.87017,-1.93529 1.87017,-1.93529 l 13.51907,-7.97367 c 0,0 0.29282,-0.22645 0.7276,-0.24391 z"
         inkscape:label="front frame" /><path
         style="display:inline;opacity:0.79562;fill:#ffffff;fill-opacity:0.411594;stroke:#ffffff;stroke-width:1.102;stroke-opacity:0.257971;filter:url(#filter121)"
         d="M 58.220844,62.642679 C 52.627195,62.207839 49.198805,63.938257 47.534739,67.433"
         id="path121"
         sodipodi:nodetypes="cc"
         transform="matrix(0.66327632,0,0,0.80238545,25.942343,54.109037)"
         inkscape:label="top shine" /><path
         style="display:inline;opacity:0.79562;fill:#ffffff;fill-opacity:0.226087;stroke:#ffffff;stroke-width:1.102;stroke-opacity:0.37971;filter:url(#filter121)"
         d="m 39.796526,84.383374 c -5.593649,-0.43484 -9.022039,1.295578 -10.686105,4.790321"
         id="path122"
         sodipodi:nodetypes="cc"
         transform="matrix(0.27745486,0,0,0.7013588,38.364062,55.734831)"
         inkscape:label="left shine" /><path
         style="display:inline;opacity:0.79562;fill:#ffffff;fill-opacity:0.304348;stroke:#ffffff;stroke-width:1.102;stroke-opacity:0.185507;filter:url(#filter121)"
         d="m 39.796526,84.383374 c -5.593649,-0.43484 -9.022039,1.295578 -10.686105,4.790321"
         id="path123"
         sodipodi:nodetypes="cc"
         transform="matrix(0.35361393,0,0,0.69432991,56.87145,63.347617)"
         inkscape:label="right shine" /></g></g></svg>
