<?xml version="1.0" encoding="UTF-8" standalone="no"?>
<!-- Created with Inkscape (http://www.inkscape.org/) -->

<svg
   width="139.19131mm"
   height="131.70636mm"
   viewBox="0 0 139.19131 131.70636"
   version="1.1"
   id="svg34852"
   inkscape:version="1.4.2 (f4327f4, 2025-05-13)"
   sodipodi:docname="user-white.svg"
   inkscape:export-filename="noetronic-icon-90.png"
   inkscape:export-xdpi="16.423439"
   inkscape:export-ydpi="16.423439"
   xmlns:inkscape="http://www.inkscape.org/namespaces/inkscape"
   xmlns:sodipodi="http://sodipodi.sourceforge.net/DTD/sodipodi-0.dtd"
   xmlns="http://www.w3.org/2000/svg"
   xmlns:svg="http://www.w3.org/2000/svg">
  <sodipodi:namedview
     id="namedview34854"
     pagecolor="#ffffff"
     bordercolor="#000000"
     borderopacity="0.25"
     inkscape:showpageshadow="2"
     inkscape:pageopacity="0.0"
     inkscape:pagecheckerboard="0"
     inkscape:deskcolor="#d1d1d1"
     inkscape:document-units="mm"
     showgrid="false"
     inkscape:zoom="0.39898189"
     inkscape:cx="479.97166"
     inkscape:cy="245.62518"
     inkscape:window-width="1280"
     inkscape:window-height="864"
     inkscape:window-x="5488"
     inkscape:window-y="80"
     inkscape:window-maximized="0"
     inkscape:current-layer="layer1"
     inkscape:export-bgcolor="#ffffff00" />
  <defs
     id="defs34849" />
  <g
     inkscape:groupmode="layer"
     id="layer2"
     inkscape:label="Layer 2" />
  <g
     inkscape:label="Layer 1"
     inkscape:groupmode="layer"
     id="layer1"
     transform="translate(-37.397293,-81.682909)">
    <g
       id="g1">
      <path
         style="opacity:0.499857;fill:none;fill-opacity:1;stroke:#001f3f;stroke-width:2.83093;stroke-dasharray:none;stroke-opacity:1"
         d="m 47.941689,178.40317 c 3.087191,-3.65908 3.224888,-5.2741 7.621652,-10.26098"
         id="path3"
         sodipodi:nodetypes="cc" />
      <path
         style="opacity:0.499857;fill:#ffff00;fill-opacity:1;stroke:#001f3f;stroke-width:2.83093;stroke-dasharray:none;stroke-opacity:1"
         d="m 51.348594,181.47184 c 2.845838,-3.57231 3.818852,-5.46894 7.514478,-9.87914"
         id="path4"
         sodipodi:nodetypes="cc" />
      <path
         style="fill:none;fill-opacity:1;stroke:#001f3f;stroke-width:6.20108;stroke-dasharray:none;stroke-opacity:1"
         id="path25969"
         sodipodi:type="arc"
         sodipodi:cx="62.65379"
         sodipodi:cy="165.44205"
         sodipodi:rx="9.938262"
         sodipodi:ry="9.938262"
         sodipodi:start="0.73683137"
         sodipodi:end="0.7360283"
         sodipodi:open="true"
         sodipodi:arc-type="arc"
         d="m 70.01408,172.12001 a 9.938262,9.938262 0 0 1 -14.036774,0.68367 9.938262,9.938262 0 0 1 -0.686488,-14.03664 9.938262,9.938262 0 0 1 14.036499,-0.6893 9.938262,9.938262 0 0 1 0.692124,14.03636" />
      <path
         style="fill:none;fill-opacity:1;stroke:#001f3f;stroke-width:6.22563;stroke-dasharray:none;stroke-opacity:1"
         id="path26023"
         sodipodi:type="arc"
         sodipodi:cx="88.769234"
         sodipodi:cy="133.57024"
         sodipodi:rx="15.121912"
         sodipodi:ry="15.121912"
         sodipodi:start="4.0461008"
         sodipodi:end="4.0458747"
         sodipodi:open="true"
         sodipodi:arc-type="arc"
         d="m 79.422799,121.68258 a 15.121912,15.121912 0 0 1 21.233561,2.54055 15.121912,15.121912 0 0 1 -2.539347,21.23371 15.121912,15.121912 0 0 1 -21.233851,-2.53815 15.121912,15.121912 0 0 1 2.536949,-21.234" />
      <path
         style="fill:#001f3f;fill-opacity:1;stroke:none;stroke-width:5.11174;stroke-dasharray:none;stroke-opacity:1"
         id="path26025"
         sodipodi:type="arc"
         sodipodi:cx="127.56058"
         sodipodi:cy="166.09697"
         sodipodi:rx="9.938262"
         sodipodi:ry="9.938262"
         sodipodi:start="4.0462297"
         sodipodi:end="4.0461738"
         sodipodi:open="true"
         sodipodi:arc-type="arc"
         d="m 121.41902,158.2835 a 9.938262,9.938262 0 0 1 13.95494,1.6718 9.938262,9.938262 0 0 1 -1.67161,13.95497 9.938262,9.938262 0 0 1 -13.95499,-1.67142 9.938262,9.938262 0 0 1 1.67122,-13.95501" />
      <path
         style="opacity:0.499857;fill:none;fill-opacity:1;stroke:#001f3f;stroke-width:2.8323;stroke-dasharray:none;stroke-opacity:1"
         d="m 130.26852,161.78184 c 6.20609,-8.58251 11.131,-19.62597 13.91517,-29.56133"
         id="path26087"
         sodipodi:nodetypes="cc" />
      <path
         style="color:#000000;fill:#001f3f;-inkscape-stroke:none"
         d="m 103.29366,81.701745 c -18.210866,0.42414 -36.119388,8.004439 -49.003903,22.226565 -22.905804,25.28377 -22.466661,63.53029 1.011719,88.30664 23.478379,24.77634 62.351544,28.23021 90.031254,8.02344 4.08638,-2.34242 -0.0755,-8.33866 -3.99805,-5.47461 -24.94051,18.2071 -59.989763,15.08036 -81.113282,-7.21094 -21.123519,-22.2913 -21.512746,-56.35014 -0.908203,-79.09375 20.604542,-22.743608 55.571265,-26.633571 80.925785,-8.972658 25.35452,17.660918 32.82981,50.944808 17.41211,77.269528 -2.01219,3.08827 3.36213,6.22548 5.84765,3.42578 17.16762,-29.31258 8.74955,-66.65865 -19.38476,-86.255854 -12.30876,-8.573776 -26.6563,-12.574028 -40.82032,-12.244141 z"
         id="path80256"
         sodipodi:nodetypes="sssccsssccss" />
      <path
         id="rect81222"
         style="fill:#001f3f;stroke:#ff0d0d;stroke-width:0"
         inkscape:transform-center-x="2.3150718"
         inkscape:transform-center-y="-2.2145639"
         d="m 139.03998,169.1979 c 12.35488,9.64222 24.7046,19.81595 36.7197,29.14914 l -8.66222,8.49639 -35.85936,-29.45983 c 4.37725,-1.26811 6.79641,-4.20032 7.80188,-8.1857 z"
         sodipodi:nodetypes="ccccc" />
      <path
         style="opacity:0.499857;fill:none;fill-opacity:1;stroke:#001f3f;stroke-width:2.832;stroke-dasharray:none;stroke-opacity:1"
         d="m 135.10839,162.56856 c 7.0815,-8.08728 10.58823,-19.67693 13.91517,-29.56133"
         id="path101569"
         sodipodi:nodetypes="cc" />
      <path
         style="opacity:0.499857;fill:none;fill-opacity:1;stroke:#001f3f;stroke-width:2.83093;stroke-dasharray:none;stroke-opacity:1"
         d="m 66.098123,155.90171 c 3.204419,-3.51255 7.747957,-7.47357 13.883039,-10.74312"
         id="path101571"
         sodipodi:nodetypes="cc" />
      <path
         style="opacity:0.499857;fill:none;fill-opacity:1;stroke:#001f3f;stroke-width:2.83093;stroke-dasharray:none;stroke-opacity:1"
         d="m 102.54093,143.52017 c 9.26817,2.68751 17.39804,8.39126 22.19234,13.93003"
         id="path101573"
         sodipodi:nodetypes="cc" />
      <path
         style="opacity:0.499857;fill:none;fill-opacity:1;stroke:#001f3f;stroke-width:2.83093;stroke-dasharray:none;stroke-opacity:1"
         d="m 98.307582,146.69519 c 9.268158,2.68751 17.398028,8.39126 22.192328,13.93003"
         id="path119279"
         sodipodi:nodetypes="cc" />
      <path
         style="opacity:0.499857;fill:none;fill-opacity:1;stroke:#001f3f;stroke-width:2.83093;stroke-dasharray:none;stroke-opacity:1"
         d="m 70.860626,158.01839 c 3.204419,-3.51255 7.747957,-7.47357 13.883039,-10.74312"
         id="path119281"
         sodipodi:nodetypes="cc" />
      <rect
         style="fill:none;fill-opacity:1;stroke:#001f3f;stroke-width:3.93041;stroke-dasharray:none;stroke-opacity:1"
         id="rect120357"
         width="18.9083"
         height="11.846967"
         x="136.87604"
         y="120.80802"
         ry="5.1291494"
         rx="7.1631098" />
      <path
         style="opacity:0.219577;fill:#000000;fill-opacity:1;stroke:#001f3f;stroke-width:1.24436;stroke-dasharray:none;stroke-dashoffset:0;stroke-opacity:1"
         d="m 78.158738,171.19729 35.853982,-0.64243"
         id="path2" />
    </g>
  </g>
</svg>
